<svg width="91" height="45" viewBox="0 0 91 45" fill="none" xmlns="http://www.w3.org/2000/svg">
<path d="M9.108 25.454V26.786H5.688V38H4.05V26.786H0.612V25.454H9.108ZM12.7623 29.738C13.0503 29.174 13.4583 28.736 13.9863 28.424C14.5263 28.112 15.1803 27.956 15.9483 27.956V29.648H15.5163C13.6803 29.648 12.7623 30.644 12.7623 32.636V38H11.1243V28.136H12.7623V29.738ZM17.2271 33.032C17.2271 32.024 17.4311 31.142 17.8391 30.386C18.2471 29.618 18.8051 29.024 19.5131 28.604C20.2331 28.184 21.0311 27.974 21.9071 27.974C22.7711 27.974 23.5211 28.16 24.1571 28.532C24.7931 28.904 25.2671 29.372 25.5791 29.936V28.136H27.2351V38H25.5791V36.164C25.2551 36.74 24.7691 37.22 24.1211 37.604C23.4851 37.976 22.7411 38.162 21.8891 38.162C21.0131 38.162 20.2211 37.946 19.5131 37.514C18.8051 37.082 18.2471 36.476 17.8391 35.696C17.4311 34.916 17.2271 34.028 17.2271 33.032ZM25.5791 33.05C25.5791 32.306 25.4291 31.658 25.1291 31.106C24.8291 30.554 24.4211 30.134 23.9051 29.846C23.4011 29.546 22.8431 29.396 22.2311 29.396C21.6191 29.396 21.0611 29.54 20.5571 29.828C20.0531 30.116 19.6511 30.536 19.3511 31.088C19.0511 31.64 18.9011 32.288 18.9011 33.032C18.9011 33.788 19.0511 34.448 19.3511 35.012C19.6511 35.564 20.0531 35.99 20.5571 36.29C21.0611 36.578 21.6191 36.722 22.2311 36.722C22.8431 36.722 23.4011 36.578 23.9051 36.29C24.4211 35.99 24.8291 35.564 25.1291 35.012C25.4291 34.448 25.5791 33.794 25.5791 33.05ZM30.8492 26.534C30.5372 26.534 30.2732 26.426 30.0572 26.21C29.8412 25.994 29.7332 25.73 29.7332 25.418C29.7332 25.106 29.8412 24.842 30.0572 24.626C30.2732 24.41 30.5372 24.302 30.8492 24.302C31.1492 24.302 31.4012 24.41 31.6052 24.626C31.8212 24.842 31.9292 25.106 31.9292 25.418C31.9292 25.73 31.8212 25.994 31.6052 26.21C31.4012 26.426 31.1492 26.534 30.8492 26.534ZM31.6412 28.136V38H30.0032V28.136H31.6412ZM39.2389 27.956C40.4389 27.956 41.4109 28.322 42.1549 29.054C42.8989 29.774 43.2709 30.818 43.2709 32.186V38H41.6509V32.42C41.6509 31.436 41.4049 30.686 40.9129 30.17C40.4209 29.642 39.7489 29.378 38.8969 29.378C38.0329 29.378 37.3429 29.648 36.8269 30.188C36.3229 30.728 36.0709 31.514 36.0709 32.546V38H34.4329V28.136H36.0709V29.54C36.3949 29.036 36.8329 28.646 37.3849 28.37C37.9489 28.094 38.5669 27.956 39.2389 27.956ZM49.4385 38.162C48.6825 38.162 48.0045 38.036 47.4045 37.784C46.8045 37.52 46.3305 37.16 45.9825 36.704C45.6345 36.236 45.4425 35.702 45.4065 35.102H47.0985C47.1465 35.594 47.3745 35.996 47.7825 36.308C48.2025 36.62 48.7485 36.776 49.4205 36.776C50.0445 36.776 50.5365 36.638 50.8965 36.362C51.2565 36.086 51.4365 35.738 51.4365 35.318C51.4365 34.886 51.2445 34.568 50.8605 34.364C50.4765 34.148 49.8825 33.938 49.0785 33.734C48.3465 33.542 47.7465 33.35 47.2785 33.158C46.8225 32.954 46.4265 32.66 46.0905 32.276C45.7665 31.88 45.6045 31.364 45.6045 30.728C45.6045 30.224 45.7545 29.762 46.0545 29.342C46.3545 28.922 46.7805 28.592 47.3325 28.352C47.8845 28.1 48.5145 27.974 49.2225 27.974C50.3145 27.974 51.1965 28.25 51.8685 28.802C52.5405 29.354 52.9005 30.11 52.9485 31.07H51.3105C51.2745 30.554 51.0645 30.14 50.6805 29.828C50.3085 29.516 49.8045 29.36 49.1685 29.36C48.5805 29.36 48.1125 29.486 47.7645 29.738C47.4165 29.99 47.2425 30.32 47.2425 30.728C47.2425 31.052 47.3445 31.322 47.5485 31.538C47.7645 31.742 48.0285 31.91 48.3405 32.042C48.6645 32.162 49.1085 32.3 49.6725 32.456C50.3805 32.648 50.9565 32.84 51.4005 33.032C51.8445 33.212 52.2225 33.488 52.5345 33.86C52.8585 34.232 53.0265 34.718 53.0385 35.318C53.0385 35.858 52.8885 36.344 52.5885 36.776C52.2885 37.208 51.8625 37.55 51.3105 37.802C50.7705 38.042 50.1465 38.162 49.4385 38.162ZM56.9888 29.954C57.3128 29.39 57.7928 28.922 58.4288 28.55C59.0768 28.166 59.8268 27.974 60.6788 27.974C61.5548 27.974 62.3468 28.184 63.0548 28.604C63.7748 29.024 64.3388 29.618 64.7468 30.386C65.1548 31.142 65.3588 32.024 65.3588 33.032C65.3588 34.028 65.1548 34.916 64.7468 35.696C64.3388 36.476 63.7748 37.082 63.0548 37.514C62.3468 37.946 61.5548 38.162 60.6788 38.162C59.8388 38.162 59.0948 37.976 58.4468 37.604C57.8108 37.22 57.3248 36.746 56.9888 36.182V42.68H55.3508V28.136H56.9888V29.954ZM63.6848 33.032C63.6848 32.288 63.5348 31.64 63.2348 31.088C62.9348 30.536 62.5268 30.116 62.0108 29.828C61.5068 29.54 60.9488 29.396 60.3368 29.396C59.7368 29.396 59.1788 29.546 58.6628 29.846C58.1588 30.134 57.7508 30.56 57.4388 31.124C57.1388 31.676 56.9888 32.318 56.9888 33.05C56.9888 33.794 57.1388 34.448 57.4388 35.012C57.7508 35.564 58.1588 35.99 58.6628 36.29C59.1788 36.578 59.7368 36.722 60.3368 36.722C60.9488 36.722 61.5068 36.578 62.0108 36.29C62.5268 35.99 62.9348 35.564 63.2348 35.012C63.5348 34.448 63.6848 33.788 63.6848 33.032ZM71.8169 38.162C70.8929 38.162 70.0529 37.952 69.2969 37.532C68.5529 37.112 67.9649 36.518 67.5329 35.75C67.1129 34.97 66.9029 34.07 66.9029 33.05C66.9029 32.042 67.1189 31.154 67.5509 30.386C67.9949 29.606 68.5949 29.012 69.3509 28.604C70.1069 28.184 70.9529 27.974 71.8889 27.974C72.8249 27.974 73.6709 28.184 74.4269 28.604C75.1829 29.012 75.7769 29.6 76.2089 30.368C76.6529 31.136 76.8749 32.03 76.8749 33.05C76.8749 34.07 76.6469 34.97 76.1909 35.75C75.7469 36.518 75.1409 37.112 74.3729 37.532C73.6049 37.952 72.7529 38.162 71.8169 38.162ZM71.8169 36.722C72.4049 36.722 72.9569 36.584 73.4729 36.308C73.9889 36.032 74.4029 35.618 74.7149 35.066C75.0389 34.514 75.2009 33.842 75.2009 33.05C75.2009 32.258 75.0449 31.586 74.7329 31.034C74.4209 30.482 74.0129 30.074 73.5089 29.81C73.0049 29.534 72.4589 29.396 71.8709 29.396C71.2709 29.396 70.7189 29.534 70.2149 29.81C69.7229 30.074 69.3269 30.482 69.0269 31.034C68.7269 31.586 68.5769 32.258 68.5769 33.05C68.5769 33.854 68.7209 34.532 69.0089 35.084C69.3089 35.636 69.7049 36.05 70.1969 36.326C70.6889 36.59 71.2289 36.722 71.8169 36.722ZM80.6666 29.738C80.9546 29.174 81.3626 28.736 81.8906 28.424C82.4306 28.112 83.0846 27.956 83.8526 27.956V29.648H83.4206C81.5846 29.648 80.6666 30.644 80.6666 32.636V38H79.0286V28.136H80.6666V29.738ZM87.7414 29.486V35.3C87.7414 35.78 87.8434 36.122 88.0474 36.326C88.2514 36.518 88.6054 36.614 89.1094 36.614H90.3154V38H88.8394C87.9274 38 87.2434 37.79 86.7874 37.37C86.3314 36.95 86.1034 36.26 86.1034 35.3V29.486H84.8254V28.136H86.1034V25.652H87.7414V28.136H90.3154V29.486H87.7414Z" fill="black"/>
<path d="M60.1805 21.3877H51.4595C51.5504 21.1499 51.6004 20.8944 51.6004 20.628V19.8684H55.6475C58.5756 19.8684 60.9578 17.6603 60.9578 14.946C60.9578 13.6312 60.4055 12.3951 59.4025 11.4654L58.874 10.9755L54.2849 6.72168C54.2849 6.72161 54.2848 6.72153 54.2846 6.72146L51.9466 4.55428C49.2835 2.08568 45.7427 0.726105 41.9763 0.726105H19.8199C19.3673 0.726105 19.0004 1.06623 19.0004 1.48573C19.0004 1.90516 19.3672 2.24536 19.8199 2.24536H41.9763C45.3048 2.24536 48.4341 3.44685 50.7876 5.62855L51.7269 6.49919H42.284C40.5669 6.49919 39.17 7.79413 39.17 9.3857C39.17 10.9773 40.567 12.2722 42.284 12.2722H57.955L58.2435 12.5396C58.9368 13.1824 59.3189 14.037 59.3189 14.946C59.3189 16.8225 57.6718 18.3492 55.6475 18.3492H50.7809H47.503H27.5652H24.2874H19.8199C19.3673 18.3492 19.0004 18.6893 19.0004 19.1089C19.0004 19.5283 19.3672 19.8685 19.8199 19.8685H23.4679V20.6281C23.4679 20.8944 23.5178 21.15 23.6088 21.3877H19.8621C19.4095 21.3877 19.0426 21.7279 19.0426 22.1474C19.0426 22.5668 19.4095 22.907 19.8621 22.907H33.6294C34.082 22.907 34.4489 22.5669 34.4489 22.1474C34.4489 21.7279 34.0821 21.3877 33.6294 21.3877H28.2438C28.3348 21.15 28.3847 20.8945 28.3847 20.6281V19.8685H46.6835V20.6281C46.6835 20.8944 46.7335 21.15 46.8244 21.3877H40.025C39.5724 21.3877 39.2055 21.7279 39.2055 22.1474C39.2055 22.5668 39.5723 22.907 40.025 22.907H60.1805C60.6331 22.907 61 22.5669 61 22.1474C61 21.7279 60.6332 21.3877 60.1805 21.3877ZM42.284 10.753C41.4707 10.753 40.8089 10.1396 40.8089 9.3857C40.8089 8.63178 41.4707 8.01837 42.284 8.01837H53.3659L56.316 10.753H42.284V10.753ZM26.7458 20.628C26.7458 21.0469 26.3782 21.3877 25.9263 21.3877C25.4744 21.3877 25.1068 21.0469 25.1068 20.628V19.8684H26.7458V20.628ZM49.9615 20.628C49.9615 21.0469 49.5939 21.3877 49.142 21.3877C48.6902 21.3877 48.3225 21.0469 48.3225 20.628V19.8684H49.9615V20.628Z" fill="#FC0104"/>
<path d="M37.4044 21.6099C37.252 21.4688 37.0406 21.3876 36.825 21.3876C36.6095 21.3876 36.398 21.4687 36.2456 21.6099C36.0932 21.751 36.0055 21.9467 36.0055 22.1463C36.0055 22.3458 36.0932 22.5415 36.2456 22.6825C36.398 22.8236 36.6094 22.9049 36.825 22.9049C37.0405 22.9049 37.252 22.8237 37.4044 22.6825C37.5568 22.5415 37.6445 22.3458 37.6445 22.1463C37.6445 21.9468 37.5568 21.751 37.4044 21.6099Z" fill="#FC0104"/>
<path d="M32.6038 6.49915H22.9489C22.4963 6.49915 22.1294 6.83927 22.1294 7.25877C22.1294 7.6782 22.4962 8.0184 22.9489 8.0184H32.6038C33.4171 8.0184 34.0788 8.63181 34.0788 9.38573C34.0788 10.1397 33.4171 10.7531 32.6037 10.7531H19.8199C19.3673 10.7531 19.0004 11.0932 19.0004 11.5127C19.0004 11.9322 19.3672 12.2723 19.8199 12.2723H32.6038C34.3208 12.2723 35.7178 10.9774 35.7178 9.3858C35.7178 7.79424 34.3208 6.49915 32.6038 6.49915Z" fill="#FC0104"/>
<path d="M20.3989 6.72142C20.2465 6.58025 20.0359 6.49915 19.8195 6.49915C19.604 6.49915 19.3925 6.58025 19.2401 6.72142C19.0877 6.86251 19 7.0582 19 7.25769C19 7.45718 19.0877 7.65295 19.2401 7.79397C19.3925 7.93506 19.604 8.01632 19.8195 8.01632C20.0358 8.01632 20.2465 7.93514 20.3989 7.79397C20.5521 7.65295 20.639 7.45718 20.639 7.25769C20.639 7.0582 20.5521 6.86251 20.3989 6.72142Z" fill="#FC0104"/>
</svg>
